# xmcd
#
# Track frame offsets:
#	182
#	15637
#	29735
#	42115
#	55307
#	69960
#	83390
#	95050
#	106605
#	119980
#	129497
#	142535
#
# Disc length: 2019 seconds
#
# Revision: 0
# Processed by: cddbd v1.4PL0 Copyright (c) Steve Scherf et al.
# Submitted via: dBpowerAMP V4.0
#
DISCID=9707e10c
DTITLE=Tom T. Hall - Singing Storyteller #2
DYEAR=1900
DGENRE=Country
TTITLE0=Salute to a Switchblade
TTITLE1=That Song is Driving Me Crazy
TTITLE2=The Yr that Clayton Delaney Died
TTITLE3=It Sure Can Get cold In DesMoines
TTITLE4=Pay No Attention To Alice
TTITLE5=Negatory Romance
TTITLE6=Pinto the Wonder Horse Is Dead
TTITLE7=The World The Way I Want It
TTITLE8=Second Handed Slowers
TTITLE9=I Care
TTITLE10=I Like Beer
TTITLE11=Sneaky Snake
EXTD=
EXTT0=
EXTT1=
EXTT2=
EXTT3=
EXTT4=
EXTT5=
EXTT6=
EXTT7=
EXTT8=
EXTT9=
EXTT10=
EXTT11=
PLAYORDER=
